<svg xmlns="http://www.w3.org/2000/svg" viewBox="0 0 512 512" width="100%" height="100%">
  <defs>
    <linearGradient id="docGrad" x1="0%" y1="0%" x2="100%" y2="100%">
      <stop offset="0%" stop-color="#3b72ed" />
      <stop offset="100%" stop-color="#1a45a5" />
    </linearGradient>
    
    <linearGradient id="badgeGrad" x1="0%" y1="0%" x2="100%" y2="100%">
      <stop offset="0%" stop-color="#60a5fa" />
      <stop offset="100%" stop-color="#2563eb" />
    </linearGradient>

    <filter id="shadow" x="-10%" y="-10%" width="130%" height="130%">
      <feDropShadow dx="0" dy="8" stdDeviation="12" flood-color="#000000" flood-opacity="0.15"/>
    </filter>
  </defs>

  <rect x="110" y="80" width="280" height="360" rx="24" fill="#e2e8f0" opacity="0.8" />

  <rect x="80" y="50" width="280" height="360" rx="24" fill="url(#docGrad)" filter="url(#shadow)" />

  <path d="M80 140 L360 140" stroke="#ffffff" stroke-width="2" stroke-opacity="0.2" />

  <rect x="120" y="180" width="200" height="16" rx="8" fill="#ffffff" opacity="0.9" />
  <rect x="120" y="220" width="140" height="16" rx="8" fill="#ffffff" opacity="0.7" />
  <rect x="120" y="260" width="170" height="16" rx="8" fill="#ffffff" opacity="0.7" />

  <rect x="120" y="310" width="200" height="2" fill="#ffffff" opacity="0.3" />

  <rect x="230" y="330" width="90" height="24" rx="8" fill="#ffffff" />
  
  <circle cx="380" cy="360" r="60" fill="#ffffff" filter="url(#shadow)" />
  
  <circle cx="380" cy="360" r="50" fill="url(#badgeGrad)" />
  
  <text x="380" y="362" font-family="-apple-system, BlinkMacSystemFont, 'Segoe UI', Roboto, Helvetica, Arial, sans-serif" font-weight="900" font-size="30" fill="#ffffff" text-anchor="middle" dominant-baseline="middle" letter-spacing="1">PRO</text>
</svg>
